<mxfile host="65bd71144e" modified="2021-01-06T05:12:08.384Z" agent="5.0 (Macintosh; Intel Mac OS X 10_15_7) AppleWebKit/537.36 (KHTML, like Gecko) Code/1.52.1 Chrome/83.0.4103.122 Electron/9.3.5 Safari/537.36" version="13.10.0" etag="hVq6_69XYzih72dSjd2N" type="embed">
    <diagram id="Z6DdN_NmTrdIRSZmbnPu" name="Page-1">
        <mxGraphModel dx="1162" dy="526" grid="1" gridSize="10" guides="1" tooltips="1" connect="1" arrows="1" fold="1" page="1" pageScale="1" pageWidth="850" pageHeight="1100" math="0" shadow="0">
            <root>
                <mxCell id="0"/>
                <mxCell id="1" parent="0"/>
                <mxCell id="2" value="&amp;nbsp; &amp;nbsp; &amp;nbsp; &amp;nbsp; &amp;nbsp;&lt;b&gt;&lt;font style=&quot;font-size: 18px&quot;&gt;users&lt;/font&gt;&lt;/b&gt;&lt;br&gt;&lt;ul&gt;&lt;li&gt;nickname&lt;/li&gt;&lt;li&gt;emcripted_email&lt;/li&gt;&lt;li&gt;password&lt;/li&gt;&lt;li&gt;birthday&lt;/li&gt;&lt;/ul&gt;" style="rounded=1;whiteSpace=wrap;html=1;align=left;" vertex="1" parent="1">
                    <mxGeometry x="-710" y="50" width="220" height="220" as="geometry"/>
                </mxCell>
                <mxCell id="3" value="&amp;nbsp; &amp;nbsp; &amp;nbsp; &amp;nbsp; &lt;b&gt;&lt;font style=&quot;font-size: 18px&quot;&gt;articles&lt;br&gt;&lt;/font&gt;&lt;/b&gt;&lt;ul&gt;&lt;li&gt;title&lt;/li&gt;&lt;li&gt;memo&lt;/li&gt;&lt;li&gt;place&lt;/li&gt;&lt;li&gt;date&lt;/li&gt;&lt;li&gt;user_id&lt;/li&gt;&lt;/ul&gt;" style="rounded=1;whiteSpace=wrap;html=1;align=left;" vertex="1" parent="1">
                    <mxGeometry x="-360" y="50" width="210" height="220" as="geometry"/>
                </mxCell>
                <mxCell id="5" value="" style="endArrow=ERmany;html=1;exitX=1.007;exitY=0.445;exitDx=0;exitDy=0;exitPerimeter=0;endFill=0;startArrow=ERone;startFill=0;strokeWidth=2;endSize=13;startSize=13;" edge="1" parent="1" source="2">
                    <mxGeometry width="50" height="50" relative="1" as="geometry">
                        <mxPoint x="-420" y="330" as="sourcePoint"/>
                        <mxPoint x="-361" y="148" as="targetPoint"/>
                    </mxGeometry>
                </mxCell>
                <mxCell id="8" style="edgeStyle=orthogonalEdgeStyle;rounded=0;orthogonalLoop=1;jettySize=auto;html=1;exitX=0.5;exitY=1;exitDx=0;exitDy=0;startArrow=ERone;startFill=0;endArrow=ERone;endFill=0;strokeWidth=3;" edge="1" parent="1" source="3" target="3">
                    <mxGeometry relative="1" as="geometry"/>
                </mxCell>
                <mxCell id="10" value="" style="endArrow=ERmany;html=1;startArrow=ERone;startFill=0;endFill=0;strokeWidth=2;targetPerimeterSpacing=0;endSize=13;startSize=13;exitX=0.014;exitY=0.945;exitDx=0;exitDy=0;exitPerimeter=0;entryX=0.97;entryY=0.038;entryDx=0;entryDy=0;entryPerimeter=0;" edge="1" parent="1" source="3" target="11">
                    <mxGeometry width="50" height="50" relative="1" as="geometry">
                        <mxPoint x="-360" y="320" as="sourcePoint"/>
                        <mxPoint x="-525" y="320" as="targetPoint"/>
                        <Array as="points"/>
                    </mxGeometry>
                </mxCell>
                <mxCell id="11" value="&lt;span&gt;&amp;nbsp; &amp;nbsp; &amp;nbsp; &amp;nbsp;&lt;/span&gt;&lt;b&gt;&lt;font style=&quot;font-size: 18px&quot;&gt;comments&lt;br&gt;&lt;/font&gt;&lt;/b&gt;&lt;ul&gt;&lt;li&gt;text&lt;/li&gt;&lt;li&gt;user_id&lt;/li&gt;&lt;li&gt;article_id&lt;/li&gt;&lt;/ul&gt;" style="rounded=1;whiteSpace=wrap;html=1;align=left;" vertex="1" parent="1">
                    <mxGeometry x="-710" y="390" width="230" height="130" as="geometry"/>
                </mxCell>
                <mxCell id="14" value="" style="endArrow=ERmany;html=1;startArrow=ERone;startFill=0;endFill=0;strokeWidth=2;targetPerimeterSpacing=0;endSize=13;startSize=13;exitX=0.432;exitY=1.023;exitDx=0;exitDy=0;exitPerimeter=0;entryX=0.417;entryY=0;entryDx=0;entryDy=0;entryPerimeter=0;" edge="1" parent="1" source="2" target="11">
                    <mxGeometry width="50" height="50" relative="1" as="geometry">
                        <mxPoint x="-347.05999999999995" y="267.9" as="sourcePoint"/>
                        <mxPoint x="-476.9" y="404.94000000000005" as="targetPoint"/>
                        <Array as="points"/>
                    </mxGeometry>
                </mxCell>
            </root>
        </mxGraphModel>
    </diagram>
</mxfile>